# xmcd
#
# Track frame offsets: 
#        150
#        13895
#        28721
#        57562
#        74081
#        89932
#        105471
#        120375
#        138787
#        154632
#        172703
#        188722
#        205930
#        223834
#        250662
#
# Disc length: 3379 seconds
#
# Revision: 1
# Processed by: cddbd v1.5.2PL0 Copyright (c) Steve Scherf et al.
# Submitted via: ExactAudioCopy v0.95b4
#
DISCID=d50d310f
DTITLE=Diamond Rio - Playlist: The Very Best Of Diamond Rio
DYEAR=2008
DGENRE=Country
TTITLE0=Norma Jean Riley
TTITLE1=Meet In The Middle
TTITLE2=Lyin' Eyes
TTITLE3=Love A Little Stronger
TTITLE4=Night Is Fallin' On My Heart
TTITLE5=Ten Feet Away
TTITLE6=Thats What I get For Loving You
TTITLE7=How Your Love Makes Me Feel
TTITLE8=Imagine That
TTITLE9=You're Gone
TTITLE10=One More Day (Admiral's Mainstream Mix w/Mando)
TTITLE11=Beautiful Mess
TTITLE12=I Believe
TTITLE13=Can't You Tell
TTITLE14=Data Track
EXTD=YEAR: 2008
EXTT0=
EXTT1=
EXTT2=
EXTT3=
EXTT4=
EXTT5=
EXTT6=
EXTT7=
EXTT8=
EXTT9=
EXTT10=
EXTT11=
EXTT12=
EXTT13=
EXTT14=
PLAYORDER=
